<?xml version="1.0" encoding="UTF-8"?>
<svg width="1024" height="1024" version="1.1" viewBox="0 0 270.93 270.93" xml:space="preserve"
     xmlns="http://www.w3.org/2000/svg"><path d="m237.42 189.51 0.0122 19.363-101.9 58.832-101.97-58.961-0.01215-19.477m204.07 0.1276 16.775-9.671v-117.66l-102.05-58.832-16.874 9.7278m-102.15 176.44-16.775-9.671v-117.66l102.05-58.832 16.874 9.7278m101.95 176.55-102.05 58.832-102.05-58.832v-117.66l102.05-58.832 102.05 58.832z" fill="none" stroke="#5e5e5e" stroke-width="5.5917"/>
    <path d="m135.84 143.36 32.728-39.064 29.802-9.2627zm0-4.9938v-46.072l57.375-22.069zm1.3 35.762-1.3 26.58 23.224-9.3432zm-37.733-17.941 32.692-58.435v88.734zm-11.706-49.384 8.9103 46.588 12.53-21.415zm-15.142 14.166 12.887-15.304 2.2553 11.276z"
          fill="#5e5e5e" style="-inkscape-stroke:none;font-variation-settings:normal"/></svg>
